
<!-- Generator: visioncortex VTracer 0.6.4 -->
<svg version="1.1" xmlns="http://www.w3.org/2000/svg" viewBox="0 0 500 500" preserveAspectRatio="xMidYMid meet">
<path d="M0 0 C165 0 330 0 500 0 C500 165 500 330 500 500 C335 500 170 500 0 500 C0 335 0 170 0 0 Z " fill="#0F0E13" transform="translate(0,0)"/>
<path d="M0 0 C7.241 -0.149 14.481 -0.257 21.722 -0.33 C24.183 -0.36 26.644 -0.401 29.104 -0.453 C32.652 -0.526 36.198 -0.56 39.746 -0.586 C40.837 -0.617 41.928 -0.648 43.052 -0.68 C50.581 -0.683 55.469 0.771 61 6 C66.668 12.026 66.675 18.207 66.488 26.156 C66.481 27.299 66.474 28.442 66.467 29.62 C66.439 33.247 66.376 36.873 66.312 40.5 C66.287 42.969 66.265 45.437 66.244 47.906 C66.189 53.938 66.103 59.969 66 66 C62.04 66 58.08 66 54 66 C54 69.96 54 73.92 54 78 C32.22 78 10.44 78 -12 78 C-12 55.89 -12 33.78 -12 11 C-8.04 11 -4.08 11 0 11 C0 7.37 0 3.74 0 0 Z " fill="#9A1376" transform="translate(263,209)"/>
<path d="M0 0 C1.65 0 3.3 0 5 0 C5 1.98 5 3.96 5 6 C8.63 6 12.26 6 16 6 C16 9.96 16 13.92 16 18 C19.63 18 23.26 18 27 18 C27.124 25.259 27.215 32.517 27.275 39.777 C27.3 42.245 27.334 44.712 27.377 47.18 C27.438 50.735 27.466 54.288 27.488 57.844 C27.514 58.94 27.54 60.036 27.566 61.165 C27.569 68.945 25.982 73.911 20.521 79.518 C14.492 84.894 9.103 85.317 1.387 85.336 C-0.006 85.346 -0.006 85.346 -1.427 85.356 C-3.387 85.366 -5.348 85.371 -7.309 85.371 C-10.292 85.375 -13.273 85.411 -16.256 85.449 C-18.167 85.455 -20.077 85.459 -21.988 85.461 C-23.314 85.482 -23.314 85.482 -24.666 85.504 C-31.522 85.455 -36.785 83.774 -42.023 79.254 C-42.469 78.696 -42.915 78.138 -43.375 77.562 C-43.836 77.007 -44.298 76.451 -44.773 75.879 C-48.256 70.544 -48.252 65.869 -48.125 59.688 C-48.116 58.852 -48.107 58.016 -48.098 57.154 C-48.074 55.103 -48.038 53.051 -48 51 C-42.72 51 -37.44 51 -32 51 C-31.563 58.937 -31.563 58.937 -31.432 61.441 C-31.538 65.02 -31.538 65.02 -30 68 C-27.139 68.113 -24.303 68.164 -21.441 68.168 C-20.582 68.171 -19.722 68.175 -18.837 68.178 C-17.015 68.183 -15.194 68.185 -13.372 68.185 C-10.578 68.187 -7.784 68.206 -4.99 68.225 C-3.224 68.228 -1.458 68.23 0.309 68.23 C1.148 68.238 1.988 68.245 2.853 68.252 C7.402 68.439 7.402 68.439 11 66 C11.33 64.022 11.33 64.022 11.319 61.734 C11.339 60.841 11.359 59.948 11.38 59.028 C11.391 58.088 11.402 57.148 11.414 56.18 C11.432 55.317 11.449 54.454 11.468 53.565 C11.531 50.335 11.577 47.105 11.625 43.875 C11.749 36.656 11.873 29.438 12 22 C-5.49 22 -22.98 22 -41 22 C-41 16.72 -41 11.44 -41 6 C-27.47 6 -13.94 6 0 6 C0 4.02 0 2.04 0 0 Z " fill="#971374" transform="translate(219,202)"/>
<path d="M0 0 C32.938 -1.706 32.938 -1.706 39.975 3.381 C47.212 10.476 47.197 19.435 47.371 29.064 C47.142 34.485 46.33 38.466 42.855 42.73 C37.05 47.744 30.266 46.87 23 46.5 C21.639 46.46 20.279 46.423 18.918 46.391 C15.609 46.297 12.306 46.166 9 46 C9.925 44.892 10.854 43.787 11.785 42.684 C12.302 42.068 12.819 41.452 13.352 40.818 C14.947 39.059 16.6 37.563 18.438 36.062 C22.427 32.777 25.695 28.958 29 25 C27.625 23.458 27.625 23.458 26 22 C25.34 22 24.68 22 24 22 C24.33 22.99 24.66 23.98 25 25 C22.095 28.004 19.178 30.994 16.248 33.972 C15.253 34.987 14.261 36.006 13.274 37.028 C11.853 38.497 10.42 39.953 8.984 41.406 C8.126 42.286 7.267 43.166 6.382 44.072 C4 46 4 46 0 46 C0 30.82 0 15.64 0 0 Z " fill="#120E14" transform="translate(267,225)"/>
<path d="M0 0 C0.881 -0.019 1.763 -0.039 2.671 -0.058 C6.722 -0.116 10.772 -0.166 14.823 -0.196 C16.958 -0.218 19.093 -0.252 21.227 -0.299 C24.304 -0.366 27.379 -0.393 30.456 -0.412 C31.882 -0.454 31.882 -0.454 33.336 -0.497 C39.939 -0.476 39.939 -0.476 42.646 1.558 C43.645 2.628 44.617 3.722 45.559 4.841 C46.862 6.449 46.862 6.449 49.46 6.982 C50.308 6.992 51.156 7.003 52.031 7.013 C52.959 7.039 53.887 7.065 54.843 7.092 C55.794 7.089 56.746 7.086 57.726 7.084 C58.7 7.104 59.675 7.125 60.679 7.146 C63.07 7.193 65.459 7.213 67.851 7.209 C67.851 7.539 67.851 7.869 67.851 8.209 C52.011 8.209 36.171 8.209 19.851 8.209 C19.851 11.839 19.851 15.469 19.851 19.209 C15.891 19.209 11.931 19.209 7.851 19.209 C7.851 41.319 7.851 63.429 7.851 86.209 C22.701 86.209 37.551 86.209 52.851 86.209 C50.871 88.519 48.891 90.829 46.851 93.209 C46.103 94.17 45.356 95.132 44.585 96.123 C40.524 99.221 37.067 98.792 32.101 98.584 C31.154 98.564 30.208 98.544 29.233 98.523 C26.104 98.448 22.978 98.331 19.851 98.209 C17.515 98.128 15.179 98.047 12.843 97.967 C6.844 97.748 0.847 97.492 -5.149 97.209 C-5.285 94.665 -5.384 92.129 -5.462 89.584 C-5.504 88.871 -5.545 88.158 -5.589 87.424 C-5.681 83.411 -5.415 81.041 -2.755 77.935 C-1.895 77.036 -1.035 76.136 -0.149 75.209 C1.794 72.075 2.116 69.643 2.17 65.981 C2.19 64.94 2.209 63.9 2.23 62.827 C2.247 61.152 2.247 61.152 2.265 59.443 C2.284 58.295 2.304 57.146 2.324 55.963 C2.383 52.295 2.43 48.627 2.476 44.959 C2.514 42.472 2.553 39.985 2.593 37.498 C2.689 31.402 2.774 25.305 2.851 19.209 C0.211 19.209 -2.429 19.209 -5.149 19.209 C-5.176 16.23 -5.196 13.251 -5.212 10.271 C-5.22 9.421 -5.228 8.571 -5.237 7.695 C-5.24 6.886 -5.244 6.077 -5.247 5.244 C-5.252 4.495 -5.257 3.746 -5.263 2.975 C-5.04 -0.495 -2.988 0.061 0 0 Z " fill="#160E18" transform="translate(243.149169921875,200.791259765625)"/>
<path d="M0 0 C2.31 0 4.62 0 7 0 C7.102 6.404 7.172 12.809 7.22 19.214 C7.24 21.39 7.267 23.567 7.302 25.743 C7.351 28.881 7.373 32.018 7.391 35.156 C7.411 36.121 7.432 37.086 7.453 38.08 C7.455 44.158 6.861 49.122 3 54 C-2.415 59.049 -7.813 59.737 -14.977 59.629 C-15.905 59.631 -16.834 59.634 -17.791 59.636 C-19.743 59.635 -21.694 59.622 -23.646 59.597 C-26.624 59.563 -29.6 59.576 -32.578 59.596 C-34.482 59.589 -36.385 59.579 -38.289 59.566 C-39.174 59.571 -40.058 59.576 -40.969 59.581 C-47.524 59.457 -50.853 57.99 -55.645 53.438 C-59.741 48.396 -60.132 45.141 -60.062 38.75 C-60.049 37.134 -60.049 37.134 -60.035 35.484 C-60.024 34.665 -60.012 33.845 -60 33 C-57.36 33 -54.72 33 -52 33 C-51.961 34.212 -51.961 34.212 -51.922 35.449 C-51.865 36.518 -51.808 37.586 -51.75 38.688 C-51.704 39.743 -51.657 40.799 -51.609 41.887 C-50.842 45.805 -49.947 47.288 -47 50 C-43.913 50.708 -40.9 50.606 -37.746 50.523 C-36.849 50.519 -35.952 50.514 -35.027 50.509 C-32.163 50.488 -29.301 50.431 -26.438 50.375 C-24.506 50.358 -22.574 50.344 -20.643 50.332 C-17.108 50.298 -13.574 50.263 -10.041 50.193 C-9.331 50.18 -8.622 50.167 -7.89 50.154 C-5.775 50.057 -5.775 50.057 -3 49 C-0.804 43.433 -0.664 38.059 -0.586 32.129 C-0.567 31.207 -0.547 30.284 -0.527 29.334 C-0.468 26.41 -0.421 23.486 -0.375 20.562 C-0.337 18.571 -0.298 16.579 -0.258 14.588 C-0.162 9.725 -0.078 4.863 0 0 Z " fill="#170E19" transform="translate(235,224)"/>
<path d="M0 0 C2.31 0 4.62 0 7 0 C7 16.83 7 33.66 7 51 C24.16 51 41.32 51 59 51 C59 53.64 59 56.28 59 59 C39.53 59 20.06 59 0 59 C0 39.53 0 20.06 0 0 Z " fill="#130E15" transform="translate(255,224)"/>
<path d="M0 0 C17.16 0 34.32 0 52 0 C52.062 7.198 52.124 14.396 52.188 21.812 C52.228 25.217 52.228 25.217 52.27 28.691 C52.279 30.488 52.287 32.285 52.293 34.082 C52.308 35.017 52.324 35.951 52.339 36.914 C52.34 37.807 52.34 38.7 52.341 39.62 C52.347 40.395 52.354 41.17 52.361 41.969 C52 44 52 44 49 47 C46.03 47 43.06 47 40 47 C40 31.82 40 16.64 40 1 C26.8 1 13.6 1 0 1 C0 0.67 0 0.34 0 0 Z " fill="#351130" transform="translate(179,224)"/>
<path d="M0 0 C2.709 -0.081 5.415 -0.141 8.125 -0.188 C8.886 -0.213 9.646 -0.238 10.43 -0.264 C16.107 -0.337 20.328 0.506 24.645 4.535 C27.734 8.575 29.127 10.59 29.114 15.633 C29.113 16.594 29.113 17.555 29.113 18.545 C29.108 19.585 29.103 20.624 29.098 21.695 C29.096 22.758 29.095 23.82 29.093 24.915 C29.088 28.319 29.075 31.722 29.062 35.125 C29.057 37.428 29.053 39.732 29.049 42.035 C29.038 47.69 29.021 53.345 29 59 C26.36 59 23.72 59 21 59 C20.996 58.433 20.993 57.865 20.989 57.281 C20.947 51.375 20.878 45.471 20.792 39.566 C20.764 37.363 20.743 35.159 20.729 32.955 C20.708 29.787 20.661 26.621 20.609 23.453 C20.608 22.468 20.607 21.482 20.606 20.467 C20.553 15.066 20.553 15.066 18.126 10.383 C15.523 8.69 13.644 8.44 10.562 8.188 C5.506 7.464 5.506 7.464 3.172 5.324 C1.812 3.375 1.812 3.375 0 0 Z " fill="#160E17" transform="translate(296,213)"/>
<path d="M0 0 C10.488 -0.124 10.488 -0.124 21.188 -0.25 C24.487 -0.305 24.487 -0.305 27.852 -0.36 C29.603 -0.372 31.354 -0.382 33.105 -0.391 C34.008 -0.411 34.911 -0.432 35.841 -0.453 C39.865 -0.455 42.443 -0.277 46.088 1.535 C48.694 4.894 48.634 7.753 48.488 11.828 C48.481 12.577 48.474 13.326 48.467 14.098 C48.439 16.483 48.376 18.866 48.312 21.25 C48.287 22.87 48.265 24.49 48.244 26.109 C48.189 30.074 48.103 34.037 48 38 C47.67 38 47.34 38 47 38 C47.049 37.004 47.049 37.004 47.099 35.987 C48.077 20.356 48.077 20.356 42 6.562 C35.5 0.151 25.278 0.9 16.75 0.75 C11.553 0.833 6.355 0.915 1 1 C1 16.18 1 31.36 1 47 C7.44 44.424 11.037 40.477 15.875 35.625 C16.767 34.761 17.659 33.898 18.578 33.008 C19.416 32.173 20.254 31.337 21.117 30.477 C21.887 29.714 22.656 28.952 23.449 28.167 C25.272 26.13 25.272 26.13 24.743 23.72 C24.498 23.153 24.253 22.585 24 22 C26.375 22.312 26.375 22.312 29 23 C29.66 23.99 30.32 24.98 31 26 C26.186 31.538 21.358 36.811 15.727 41.527 C14.062 42.947 12.537 44.445 11 46 C15.52 46.204 20.039 46.328 24.562 46.438 C26.478 46.525 26.478 46.525 28.432 46.615 C35.27 46.901 35.27 46.901 41.429 44.411 C43.126 42.689 44.565 40.939 46 39 C46.33 39 46.66 39 47 39 C47.495 43.455 47.495 43.455 48 48 C32.16 48 16.32 48 0 48 C0 32.16 0 16.32 0 0 Z " fill="#541447" transform="translate(266,224)"/>
<path d="M0 0 C0.881 -0.019 1.763 -0.039 2.671 -0.058 C6.722 -0.116 10.772 -0.166 14.823 -0.196 C16.958 -0.218 19.093 -0.252 21.227 -0.299 C24.304 -0.366 27.379 -0.393 30.456 -0.412 C31.882 -0.454 31.882 -0.454 33.336 -0.497 C39.939 -0.476 39.939 -0.476 42.646 1.558 C43.645 2.628 44.617 3.722 45.559 4.841 C46.862 6.449 46.862 6.449 49.46 6.982 C50.308 6.992 51.156 7.003 52.031 7.013 C52.959 7.039 53.887 7.065 54.843 7.092 C55.794 7.089 56.746 7.086 57.726 7.084 C58.7 7.104 59.675 7.125 60.679 7.146 C63.07 7.193 65.459 7.213 67.851 7.209 C67.851 7.539 67.851 7.869 67.851 8.209 C52.011 8.209 36.171 8.209 19.851 8.209 C19.851 7.879 19.851 7.549 19.851 7.209 C13.251 6.879 6.651 6.549 -0.149 6.209 C-0.149 10.499 -0.149 14.789 -0.149 19.209 C-1.799 19.209 -3.449 19.209 -5.149 19.209 C-5.176 16.23 -5.196 13.251 -5.212 10.271 C-5.22 9.421 -5.228 8.571 -5.237 7.695 C-5.24 6.886 -5.244 6.077 -5.247 5.244 C-5.252 4.495 -5.257 3.746 -5.263 2.975 C-5.04 -0.495 -2.988 0.061 0 0 Z M18.851 8.209 C19.181 8.209 19.511 8.209 19.851 8.209 C19.851 11.839 19.851 15.469 19.851 19.209 C19.521 19.209 19.191 19.209 18.851 19.209 C18.851 15.579 18.851 11.949 18.851 8.209 Z " fill="#44133B" transform="translate(243.149169921875,200.791259765625)"/>
<path d="M0 0 C2.64 0 5.28 0 8 0 C8.039 1.212 8.039 1.212 8.078 2.449 C8.363 9.122 8.363 9.122 10.875 15.188 C14.499 18.278 17.819 18.171 22.418 18.316 C23.672 18.358 24.925 18.4 26.217 18.443 C27.527 18.483 28.837 18.522 30.188 18.562 C31.523 18.606 32.858 18.649 34.193 18.693 C37.462 18.8 40.731 18.902 44 19 C44 21.31 44 23.62 44 26 C39.553 26.099 35.106 26.172 30.658 26.22 C29.147 26.24 27.635 26.267 26.125 26.302 C23.945 26.351 21.766 26.373 19.586 26.391 C18.277 26.412 16.968 26.433 15.619 26.454 C10.319 25.789 6.528 23.111 3.188 19 C-0.086 14.511 -0.122 11.245 -0.062 5.75 C-0.049 4.134 -0.049 4.134 -0.035 2.484 C-0.024 1.665 -0.012 0.845 0 0 Z " fill="#180E19" transform="translate(175,257)"/>
<path d="M0 0 C15.51 0 31.02 0 47 0 C47 2.64 47 5.28 47 8 C31.49 8 15.98 8 0 8 C0 5.36 0 2.72 0 0 Z " fill="#120E14" transform="translate(183,212)"/>
<path d="M0 0 C2.34 -0.308 2.34 -0.308 5 0 C6.319 2.148 6.319 2.148 7.566 4.93 C9.371 7.703 10.707 9.613 13.959 10.586 C19.916 11.465 25.934 11.249 31.938 11.125 C33.785 11.123 35.632 11.126 37.479 11.133 C41.987 11.141 46.492 11.087 51 11 C51 9.02 51 7.04 51 5 C52.65 5 54.3 5 56 5 C56 8.96 56 12.92 56 17 C49.775 17.348 43.556 17.601 37.323 17.769 C35.208 17.839 33.093 17.934 30.98 18.056 C13.888 19.016 13.888 19.016 9.036 15.629 C4.656 11.184 1.963 5.89 0 0 Z " fill="#3D1336" transform="translate(168,282)"/>
<path d="M0 0 C1.98 0 3.96 0 6 0 C6.051 6.23 6.086 12.459 6.11 18.689 C6.12 20.809 6.134 22.93 6.151 25.05 C6.175 28.093 6.186 31.136 6.195 34.18 C6.206 35.132 6.216 36.084 6.227 37.065 C6.227 37.946 6.227 38.826 6.227 39.734 C6.231 40.511 6.236 41.288 6.241 42.089 C6 44 6 44 4 46 C2.68 46 1.36 46 0 46 C0 30.82 0 15.64 0 0 Z " fill="#120E15" transform="translate(224,225)"/>
<path d="M0 0 C0.33 0 0.66 0 1 0 C1.003 0.58 1.005 1.16 1.008 1.758 C1.046 2.539 1.085 3.32 1.125 4.125 C1.148 4.891 1.171 5.656 1.195 6.445 C1.841 9.337 1.841 9.337 5.031 11.375 C7.477 13.657 7.973 14.828 8.492 18.195 C8.59 22.099 8.524 25.975 8.375 29.875 C8.345 31.245 8.318 32.615 8.293 33.984 C8.222 37.325 8.124 40.661 8 44 C5.36 44 2.72 44 0 44 C0 29.48 0 14.96 0 0 Z " fill="#551347" transform="translate(317,228)"/>
<path d="M0 0 C1.176 0.124 2.351 0.248 3.562 0.375 C2.669 1.44 1.773 2.502 0.875 3.562 C0.376 4.154 -0.123 4.746 -0.637 5.355 C-1.231 6.022 -1.825 6.688 -2.438 7.375 C-3.101 8.271 -3.765 9.167 -4.449 10.09 C-8.952 13.533 -13.06 12.957 -18.562 12.75 C-19.564 12.736 -20.566 12.722 -21.598 12.707 C-28.881 12.56 -28.881 12.56 -32.438 11.375 C-32.438 10.385 -32.438 9.395 -32.438 8.375 C-30.149 7.231 -28.872 7.264 -26.332 7.27 C-25.513 7.255 -24.694 7.24 -23.85 7.225 C-22.136 7.2 -20.422 7.194 -18.709 7.209 C-13.928 7.086 -11.203 6.62 -7.602 3.348 C-7.092 2.802 -6.582 2.257 -6.057 1.696 C-3.965 -0.01 -2.667 -0.026 0 0 Z " fill="#411339" transform="translate(292.4375,286.625)"/>
<path d="M0 0 C1.32 0.66 2.64 1.32 4 2 C4.33 5.3 4.66 8.6 5 12 C17.21 12 29.42 12 42 12 C42 12.33 42 12.66 42 13 C31.605 13.495 31.605 13.495 21 14 C21 14.99 21 15.98 21 17 C13.74 17 6.48 17 -1 17 C-1.021 14.381 -1.041 11.761 -1.062 9.062 C-1.072 8.236 -1.081 7.41 -1.09 6.559 C-1.097 4.706 -1.05 2.853 -1 1 C-0.67 0.67 -0.34 0.34 0 0 Z " fill="#30112C" transform="translate(239,281)"/>
<path d="M0 0 C3.395 -0.146 6.79 -0.234 10.188 -0.312 C11.147 -0.354 12.107 -0.396 13.096 -0.439 C20.267 -0.564 20.267 -0.564 24.113 2.395 C26 5 26 5 27 7 C18.09 7 9.18 7 0 7 C0 4.69 0 2.38 0 0 Z " fill="#130E15" transform="translate(267,213)"/>
<path d="M0 0 C1.316 -0.049 2.632 -0.098 3.988 -0.148 C7.688 0.375 7.688 0.375 9.992 2.848 C14.072 6.673 18.097 6.155 23.5 6.188 C24.479 6.213 25.458 6.238 26.467 6.264 C28.874 6.322 31.28 6.359 33.688 6.375 C33.688 6.705 33.688 7.035 33.688 7.375 C17.847 7.375 2.007 7.375 -14.312 7.375 C-14.312 7.045 -14.312 6.715 -14.312 6.375 C-8.043 6.045 -1.772 5.715 4.688 5.375 C-2.243 4.88 -2.243 4.88 -9.312 4.375 C-9.312 3.385 -9.312 2.395 -9.312 1.375 C-6.325 -0.119 -3.275 0.069 0 0 Z M-15.312 7.375 C-14.983 7.375 -14.652 7.375 -14.312 7.375 C-14.312 11.005 -14.312 14.635 -14.312 18.375 C-14.642 18.375 -14.973 18.375 -15.312 18.375 C-15.312 14.745 -15.312 11.115 -15.312 7.375 Z " fill="#60144F" transform="translate(277.3125,201.625)"/>
<path d="M0 0 C1.338 0.052 2.675 0.147 4.008 0.281 C4.696 0.317 5.385 0.353 6.094 0.391 C7.776 0.484 9.455 0.628 11.133 0.781 C11.133 3.421 11.133 6.061 11.133 8.781 C4.203 8.781 -2.727 8.781 -9.867 8.781 C-3.867 0.781 -3.867 0.781 0 0 Z " fill="#5E144E" transform="translate(302.8671875,274.21875)"/>
<path d="M0 0 C0.797 0.002 1.594 0.004 2.416 0.007 C3.317 0.007 4.217 0.007 5.146 0.007 C6.125 0.012 7.104 0.017 8.113 0.023 C9.11 0.024 10.108 0.025 11.135 0.027 C14.335 0.033 17.534 0.045 20.734 0.058 C22.897 0.063 25.061 0.067 27.224 0.071 C32.54 0.082 37.856 0.099 43.171 0.12 C43.171 0.45 43.171 0.78 43.171 1.12 C38.221 1.45 33.271 1.78 28.171 2.12 C29.491 3.44 30.811 4.76 32.171 6.12 C32.171 6.78 32.171 7.44 32.171 8.12 C27.802 8.961 23.688 9.238 19.242 9.218 C17.953 9.215 16.664 9.211 15.335 9.208 C13.989 9.2 12.643 9.191 11.296 9.183 C9.927 9.178 8.557 9.173 7.187 9.169 C3.848 9.157 0.51 9.141 -2.829 9.12 C-2.926 2.968 -2.926 2.968 -2.829 1.12 C-1.829 0.12 -1.829 0.12 0 0 Z M-1.829 1.12 C-1.829 3.43 -1.829 5.74 -1.829 8.12 C7.081 8.12 15.991 8.12 25.171 8.12 C22.671 3.144 22.671 3.144 19.171 1.12 C16.849 0.845 16.849 0.845 14.285 0.925 C13.347 0.931 12.409 0.938 11.443 0.944 C10.466 0.961 9.49 0.978 8.484 0.995 C7.002 1.009 7.002 1.009 5.49 1.023 C3.05 1.046 0.611 1.079 -1.829 1.12 Z " fill="#651452" transform="translate(268.82862854003906,211.87974548339844)"/>
<path d="M0 0 C0.99 0 1.98 0 3 0 C3 14.19 3 28.38 3 43 C1.515 43.495 1.515 43.495 0 44 C0 29.48 0 14.96 0 0 Z " fill="#3E1338" transform="translate(255,228)"/>
<path d="M0 0 C2.375 0.312 2.375 0.312 5 1 C5.66 1.99 6.32 2.98 7 4 C2.182 9.543 -2.648 14.812 -8.289 19.527 C-10.162 21.076 -10.162 21.076 -12.188 23.438 C-14 25 -14 25 -16.75 25.25 C-17.493 25.168 -18.235 25.085 -19 25 C-15.913 21.285 -12.807 17.735 -9.316 14.395 C-8.7 13.803 -8.083 13.212 -7.447 12.604 C-6.171 11.39 -4.886 10.185 -3.596 8.986 C-2.988 8.399 -2.38 7.812 -1.754 7.207 C-1.2 6.686 -0.647 6.165 -0.076 5.628 C1.252 4.012 1.252 4.012 0.672 1.8 C0.45 1.206 0.229 0.612 0 0 Z " fill="#34112F" transform="translate(290,246)"/>
<path d="M0 0 C15.51 0 31.02 0 47 0 C47 2.64 47 5.28 47 8 C43.37 8 39.74 8 36 8 C36 5.69 36 3.38 36 1 C24.12 1 12.24 1 0 1 C0 0.67 0 0.34 0 0 Z " fill="#5D144D" transform="translate(183,212)"/>
<path d="M0 0 C1.65 0 3.3 0 5 0 C5 1.98 5 3.96 5 6 C8.63 6 12.26 6 16 6 C16 9.96 16 13.92 16 18 C15.67 18 15.34 18 15 18 C15 14.37 15 10.74 15 7 C-3.15 7 -21.3 7 -40 7 C-40 11.95 -40 16.9 -40 22 C-40.33 22 -40.66 22 -41 22 C-41 16.72 -41 11.44 -41 6 C-27.47 6 -13.94 6 0 6 C0 4.02 0 2.04 0 0 Z " fill="#5C144C" transform="translate(219,202)"/>
<path d="M0 0 C0.33 0 0.66 0 1 0 C1.495 4.455 1.495 4.455 2 9 C-13.84 9 -29.68 9 -46 9 C-46 8.67 -46 8.34 -46 8 C-44.283 8.01 -44.283 8.01 -42.531 8.019 C-38.261 8.034 -33.992 8.002 -29.722 7.957 C-27.878 7.944 -26.034 7.943 -24.191 7.955 C-21.531 7.97 -18.874 7.941 -16.215 7.902 C-14.989 7.924 -14.989 7.924 -13.739 7.946 C-8.838 7.823 -6.483 6.973 -2.987 3.444 C-2.432 2.802 -1.877 2.161 -1.305 1.5 C-0.874 1.005 -0.444 0.51 0 0 Z " fill="#811365" transform="translate(312,263)"/>
<path d="M0 0 C0.866 0.124 1.733 0.248 2.625 0.375 C1.161 2.112 -0.312 3.839 -1.805 5.551 C-2.996 6.935 -4.136 8.365 -5.25 9.812 C-8.627 12.295 -11.253 11.774 -15.375 11.375 C-16.035 10.715 -16.695 10.055 -17.375 9.375 C-16.179 9.004 -14.983 8.632 -13.75 8.25 C-10.47 7.055 -8.565 5.791 -6.25 3.188 C-3.938 0.616 -3.685 0.409 0 0 Z " fill="#5C144C" transform="translate(292.375,286.625)"/>
<path d="M0 0 C0.33 0 0.66 0 1 0 C1.061 1.253 1.121 2.506 1.184 3.797 C1.268 5.448 1.353 7.099 1.438 8.75 C1.477 9.575 1.516 10.4 1.557 11.25 C1.599 12.049 1.64 12.848 1.684 13.672 C1.72 14.405 1.757 15.138 1.795 15.894 C1.947 18.038 1.947 18.038 2.582 20.208 C2.789 21.095 2.789 21.095 3 22 C2.67 22.33 2.34 22.66 2 23 C1.843 24.633 1.749 26.271 1.684 27.91 C1.642 28.9 1.6 29.889 1.557 30.908 C1.517 31.949 1.478 32.99 1.438 34.062 C1.394 35.107 1.351 36.152 1.307 37.229 C1.2 39.819 1.098 42.409 1 45 C0.67 45 0.34 45 0 45 C0 30.15 0 15.3 0 0 Z M-12 45 C-8.04 45 -4.08 45 0 45 C0 45.33 0 45.66 0 46 C-3.63 46 -7.26 46 -11 46 C-11 49.63 -11 53.26 -11 57 C-11.33 57 -11.66 57 -12 57 C-12 53.04 -12 49.08 -12 45 Z " fill="#34112F" transform="translate(329,230)"/>
<path d="M0 0 C1.031 0.144 2.062 0.289 3.125 0.438 C3.125 2.748 3.125 5.058 3.125 7.438 C-1.165 7.438 -5.455 7.438 -9.875 7.438 C-4.829 0.545 -4.829 0.545 0 0 Z " fill="#160E17" transform="translate(309.875,275.5625)"/>
<path d="M0 0 C0 4.29 0 8.58 0 13 C-2.31 13 -4.62 13 -7 13 C-7.72 6.997 -7.72 6.997 -5.699 4.199 C-1.5 0 -1.5 0 0 0 Z " fill="#160E17" transform="translate(325,258)"/>
<path d="M0 0 C11.22 0 22.44 0 34 0 C33.67 2.64 33.34 5.28 33 8 C31.35 8 29.7 8 28 8 C28 5.69 28 3.38 28 1 C18.76 1 9.52 1 0 1 C0 0.67 0 0.34 0 0 Z " fill="#3A1234" transform="translate(191,275)"/>
<path d="M0 0 C0.33 0 0.66 0 1 0 C1.375 2.625 1.375 2.625 1 6 C-0.301 7.488 -0.301 7.488 -1.938 8.938 C-4.735 11.419 -4.985 11.931 -5.875 15.875 C-5.916 16.906 -5.957 17.938 -6 19 C-3.69 19 -1.38 19 1 19 C1 19.33 1 19.66 1 20 C-1.64 20 -4.28 20 -7 20 C-7 15.05 -7 10.1 -7 5 C-5.35 4.34 -3.7 3.68 -2 3 C-1.34 2.01 -0.68 1.02 0 0 Z " fill="#611350" transform="translate(324,252)"/>
<path d="M0 0 C11.88 0 23.76 0 36 0 C35.67 0.66 35.34 1.32 35 2 C34.173 1.979 33.345 1.958 32.493 1.937 C28.746 1.853 24.998 1.801 21.25 1.75 C19.297 1.7 19.297 1.7 17.305 1.648 C16.054 1.636 14.804 1.623 13.516 1.609 C12.364 1.588 11.211 1.567 10.024 1.546 C6.369 2.095 5.392 3.295 3 6 C0.75 5.75 0.75 5.75 -1 5 C-0.34 4.01 0.32 3.02 1 2 C0.67 1.34 0.34 0.68 0 0 Z " fill="#381232" transform="translate(263,275)"/>
<path d="M0 0 C2.375 0.312 2.375 0.312 5 1 C5.66 1.99 6.32 2.98 7 4 C4 6 4 6 2 6 C0.375 7.458 0.375 7.458 -1 9 C-1.66 8.67 -2.32 8.34 -3 8 C-2.319 7.237 -1.639 6.474 -0.938 5.688 C0.022 4.357 0.022 4.357 1 3 C0.67 2.01 0.34 1.02 0 0 Z " fill="#2E112A" transform="translate(290,246)"/>
<path d="M0 0 C1.189 0.009 2.377 0.018 3.602 0.027 C4.517 0.039 5.432 0.051 6.375 0.062 C5.385 0.722 4.395 1.382 3.375 2.062 C3.705 2.722 4.035 3.382 4.375 4.062 C0.085 4.062 -4.205 4.062 -8.625 4.062 C-8.625 3.072 -8.625 2.083 -8.625 1.062 C-5.741 -0.38 -3.208 -0.031 0 0 Z " fill="#5C144C" transform="translate(276.625,201.9375)"/>
<path d="M0 0 C1.98 1.65 3.96 3.3 6 5 C5.812 6.75 5.812 6.75 5 9 C3.35 10.32 1.7 11.64 0 13 C0 8.71 0 4.42 0 0 Z " fill="#150E17" transform="translate(318,244)"/>
<path d="M0 0 C0.33 0 0.66 0 1 0 C1 11.55 1 23.1 1 35 C-0.485 35.495 -0.485 35.495 -2 36 C-2 34.68 -2 33.36 -2 32 C-1.34 32 -0.68 32 0 32 C0 21.44 0 10.88 0 0 Z " fill="#351230" transform="translate(257,236)"/>
<path d="M0 0 C1.98 0 3.96 0 6 0 C6 2.31 6 4.62 6 7 C4.02 7 2.04 7 0 7 C0 4.69 0 2.38 0 0 Z " fill="#130E15" transform="translate(224,213)"/>
<path d="M0 0 C0.33 0 0.66 0 1 0 C1.33 2.64 1.66 5.28 2 8 C-0.97 8 -3.94 8 -7 8 C-6.021 6.854 -5.042 5.708 -4.062 4.562 C-3.517 3.924 -2.972 3.286 -2.41 2.629 C-1.632 1.73 -0.841 0.841 0 0 Z " fill="#581449" transform="translate(312,263)"/>
<path d="M0 0 C2.31 0 4.62 0 7 0 C7 2.64 7 5.28 7 8 C6.01 8.33 5.02 8.66 4 9 C3.67 6.36 3.34 3.72 3 1 C2.01 0.67 1.02 0.34 0 0 Z " fill="#32112D" transform="translate(235,224)"/>
<path d="M0 0 C1.65 0 3.3 0 5 0 C5 2.31 5 4.62 5 7 C3.35 7 1.7 7 0 7 C0 4.69 0 2.38 0 0 Z " fill="#3D1338" transform="translate(219,213)"/>
<path d="M0 0 C1.65 0 3.3 0 5 0 C5 1.98 5 3.96 5 6 C3.35 6 1.7 6 0 6 C0 4.02 0 2.04 0 0 Z " fill="#47143E" transform="translate(219,202)"/>
<path d="M0 0 C0 3.522 -0.567 4.058 -2.812 6.625 C-3.596 7.542 -3.596 7.542 -4.395 8.477 C-6 10 -6 10 -9 11 C-7.599 5.708 -4.145 3.225 0 0 Z M-11 11 C-10.01 11.495 -10.01 11.495 -9 12 C-9.99 12.495 -9.99 12.495 -11 13 C-11 12.34 -11 11.68 -11 11 Z " fill="#40143A" transform="translate(293,250)"/>
<path d="M0 0 C1.32 0.66 2.64 1.32 4 2 C2.02 2.99 2.02 2.99 0 4 C0 4.66 0 5.32 0 6 C-0.99 6.66 -1.98 7.32 -3 8 C-3.99 7.67 -4.98 7.34 -6 7 C-4.02 4.69 -2.04 2.38 0 0 Z " fill="#561448" transform="translate(299,275)"/>
<path d="M0 0 C2.31 0.33 4.62 0.66 7 1 C5.68 2.65 4.36 4.3 3 6 C1.68 5.67 0.36 5.34 -1 5 C-0.34 4.01 0.32 3.02 1 2 C0.67 1.34 0.34 0.68 0 0 Z " fill="#31112D" transform="translate(263,275)"/>
<path d="M0 0 C4.75 0.75 4.75 0.75 7 3 C6.625 5.125 6.625 5.125 6 7 C3.959 5.384 1.959 3.714 0 2 C0 1.34 0 0.68 0 0 Z " fill="#45133C" transform="translate(306,224)"/>
<path d="M0 0 C1.32 0.33 2.64 0.66 4 1 C2.377 2.709 0.707 4.374 -1 6 C-1.66 6 -2.32 6 -3 6 C-2.67 4.68 -2.34 3.36 -2 2 C-1.34 2 -0.68 2 0 2 C0 1.34 0 0.68 0 0 Z " fill="#641552" transform="translate(291,287)"/>
<path d="M0 0 C0.99 0.33 1.98 0.66 3 1 C2.67 2.32 2.34 3.64 2 5 C1.34 5 0.68 5 0 5 C0 3.35 0 1.7 0 0 Z " fill="#4A133F" transform="translate(329,248)"/>
<path d="M0 0 C0.33 1.32 0.66 2.64 1 4 C0.01 4.33 -0.98 4.66 -2 5 C-2 3.68 -2 2.36 -2 1 C-1.34 0.67 -0.68 0.34 0 0 Z " fill="#32112E" transform="translate(257,267)"/>
<path d="M0 0 C1.32 0.33 2.64 0.66 4 1 C4.33 2.32 4.66 3.64 5 5 C3.35 3.35 1.7 1.7 0 0 Z " fill="#160E17" transform="translate(308,225)"/>
</svg>